<?xml version="1.0" encoding="UTF-8"?>
<svg id="No_Results" data-name="No Results" xmlns="http://www.w3.org/2000/svg" viewBox="0 0 969 969">
  <defs>
    <style>
      .cls-1 {
        fill: #fff;
      }

      .cls-2, .cls-3 {
        fill: #947100;
      }

      .cls-4 {
        fill: #2a6f5b;
      }

      .cls-3 {
        opacity: .34;
      }
    </style>
  </defs>
  <path id="Path_3197" data-name="Path 3197" class="cls-3" d="m593.74,681.74c49.29,8.55,107.75,21.98,169.71,15.88,74.29-7.32,125.94-82.62,123.66-143.04-7.52-199.35-227.89-274.27-333.19-284.09s-227.84,34.53-306.2,136.26c-13.37,17.35-25.46,36.46-32.31,57.34-17.51,53.4-5.1,122.01,21.67,160.58,24.19,34.86,82.75,56.54,128.64,61.92,45.89,5.38,62.67-33.52,228.02-4.85Z"/>
  <path id="Path_3198" data-name="Path 3198" class="cls-4" d="m696.73,251.33h-398.24c-4.1,0-7.42,3.32-7.42,7.42v138.77c0,4.1,3.32,7.42,7.42,7.42h34.4v40.48l45.42-40.48h318.42c4.1,0,7.42-3.32,7.42-7.42h0v-138.77c0-4.1-3.32-7.42-7.42-7.42h0Z"/>
  <g id="Group_1969" data-name="Group 1969">
    <path id="Path_3199" data-name="Path 3199" class="cls-1" d="m322.22,298.18h137.72c4.07,0,7.37-3.3,7.37-7.37s-3.3-7.37-7.37-7.37h-137.72c-4.07,0-7.38,3.29-7.38,7.36,0,4.07,3.29,7.38,7.36,7.38,0,0,.01,0,.02,0Z"/>
    <path id="Path_3200" data-name="Path 3200" class="cls-1" d="m510.38,320.7h-188.16c-4.07,0-7.38,3.29-7.38,7.36,0,4.07,3.29,7.38,7.36,7.38h188.17c4.07,0,7.37-3.31,7.36-7.38,0-4.07-3.3-7.36-7.36-7.36Z"/>
    <path id="Path_3201" data-name="Path 3201" class="cls-1" d="m418.12,357.25h-95.9c-4.07,0-7.38,3.29-7.38,7.36,0,4.07,3.29,7.38,7.36,7.38h95.91c4.07,0,7.37-3.31,7.36-7.38,0-4.07-3.3-7.36-7.36-7.36Z"/>
    <path id="Path_3202" data-name="Path 3202" class="cls-1" d="m653.2,320.7h-110.63c-4.07,0-7.38,3.29-7.38,7.36,0,4.07,3.29,7.38,7.36,7.38h110.65c4.07,0,7.37-3.31,7.36-7.38,0-4.07-3.3-7.36-7.36-7.36Z"/>
    <path id="Path_3203" data-name="Path 3203" class="cls-1" d="m489.68,298.18h71.41c4.07,0,7.37-3.3,7.37-7.37s-3.3-7.37-7.37-7.37h-71.41c-4.07,0-7.38,3.29-7.38,7.36,0,4.07,3.29,7.38,7.36,7.38,0,0,.01,0,.02,0Z"/>
    <path id="Path_3204" data-name="Path 3204" class="cls-1" d="m592.92,298.18h27.41c4.07,0,7.37-3.3,7.37-7.37s-3.3-7.37-7.37-7.37h-27.41c-4.07,0-7.38,3.29-7.38,7.36,0,4.07,3.29,7.38,7.36,7.38,0,0,.01,0,.02,0Z"/>
  </g>
  <path id="Path_3205" data-name="Path 3205" class="cls-2" d="m395.13,444.56h398.25c4.1,0,7.42,3.32,7.42,7.42h0v138.77c0,4.1-3.32,7.42-7.42,7.42h-55.48v40.48l-45.42-40.48h-297.35c-4.1,0-7.42-3.32-7.42-7.42h0v-138.77c0-4.1,3.32-7.42,7.42-7.42Z"/>
  <g id="Group_1970" data-name="Group 1970">
    <path id="Path_3206" data-name="Path 3206" class="cls-1" d="m765.64,476.66h-124.1c-4.07,0-7.37,3.3-7.37,7.37s3.3,7.37,7.37,7.37h124.09c4.07,0,7.37-3.3,7.37-7.37s-3.3-7.37-7.37-7.37h.01Z"/>
    <path id="Path_3207" data-name="Path 3207" class="cls-1" d="m572.36,520.87c0,4.07,3.3,7.37,7.37,7.37h123.63c4.07,0,7.37-3.3,7.37-7.37s-3.3-7.37-7.37-7.37h-123.63c-4.07,0-7.37,3.3-7.37,7.37h0Z"/>
    <path id="Path_3208" data-name="Path 3208" class="cls-1" d="m743.39,550.68h-64.95c-4.07,0-7.37,3.3-7.37,7.37s3.3,7.37,7.37,7.37h64.95c4.07,0,7.37-3.3,7.37-7.37s-3.3-7.37-7.37-7.37Z"/>
    <path id="Path_3209" data-name="Path 3209" class="cls-1" d="m652.88,550.68h-233.47c-4.07,0-7.37,3.3-7.37,7.37s3.3,7.37,7.37,7.37h233.47c4.07,0,7.37-3.3,7.37-7.37s-3.3-7.37-7.37-7.37Z"/>
    <path id="Path_3210" data-name="Path 3210" class="cls-1" d="m418.5,528.24h137.06c4.07,0,7.37-3.3,7.37-7.37s-3.3-7.37-7.37-7.37h-137.06c-4.07,0-7.37,3.3-7.37,7.37s3.3,7.37,7.37,7.37Z"/>
    <path id="Path_3211" data-name="Path 3211" class="cls-1" d="m418.5,491.4h194.81c4.07,0,7.37-3.3,7.37-7.37s-3.3-7.37-7.37-7.37h-194.81c-4.07,0-7.37,3.3-7.37,7.37s3.3,7.37,7.37,7.37Z"/>
  </g>
  <path id="Icon_material-phone" data-name="Icon material-phone" class="cls-4" d="m858.71,607.62c-2.28-3.21-2.56-7.44-.73-10.93,5.98-11.15,10.13-23.19,12.3-35.66,1.01-5.67,6.41-9.46,12.09-8.47l35.96,6.32c5.67,1.01,9.45,6.41,8.47,12.09v.04c-16.96,96.46-108.9,160.91-205.36,143.96,0,0,0,0,0,0-5.67-1.01-9.46-6.41-8.47-12.09l6.3-35.86c1.01-5.67,6.41-9.45,12.09-8.47,12.46,2.2,25.19,2.4,37.71.59,3.9-.6,7.79,1.07,10.04,4.31l18.63,26.57c31.74-9.78,59.6-29.31,79.61-55.81l-18.65-26.59Z"/>
  <path class="cls-2" d="m794.29,423.94c-2.09-1.26-4.38-2.28-6.23-3.82-5.11-4.24-7.72-9.82-7.94-16.46-.04-1.07-.28-1.76-1.16-2.45-4.28-3.35-6.02-7.73-4.94-13.11.4-1.99.87-3.96,1.3-5.94,1.25-5.67,1.87-11.4.38-17.08-.8-3.03-1.94-6.02-3.37-8.81-3.03-5.91-5.43-12-6.12-18.62-.39-3.71-.79-7.5-.4-11.17.44-4.25,1.65-8.43,2.7-12.6,1.07-4.21,3.16-7.98,5.48-11.64,2.99-4.72,6.72-8.73,11.03-12.29,6.1-5.03,13.02-8.35,20.65-10.18,4.68-1.12,9.46-1.46,14.3-1.28,4.71.17,9.22,1.35,13.68,2.57,5.43,1.48,10.49,4.02,14.93,7.55,2.74,2.18,5.44,4.46,7.83,6.99,5.01,5.32,8.56,11.56,10.92,18.49,2.03,5.93,2.79,12.02,2.7,18.24-.03,1.98-.34,3.97-.69,5.93-.42,2.38-.94,4.74-1.56,7.08-1.29,4.84-3.48,9.27-6.15,13.49-3.13,4.94-7.03,9.14-11.63,12.73-4.41,3.45-8.53,7.17-11.23,12.22-1.41,2.63-2.63,5.3-3.28,8.24-.82,3.75-1.64,7.52-2.8,11.17-.92,2.88-2.92,5.14-5.77,6.4-1.48.66-3.07,1.05-4.6,1.61-.27.1-.57.35-.67.61-1.46,3.58-3.86,6.38-6.89,8.74-3.57,2.77-7.62,4.15-12.06,4.5-1.1.09-2.2.03-3.3.04l-5.09-1.13Zm33.71-37.36c.41-1.21.65-2.34,1.16-3.34,2.54-5.06,5.46-9.88,9.79-13.66,2.53-2.21,5.17-4.29,7.7-6.5,4.46-3.88,7.96-8.55,10.41-13.9,1.38-2.99,2.52-6.15,3.25-9.36.66-2.91.75-5.98.87-8.99.31-7.88-1.87-15.15-5.74-21.93-2.1-3.68-4.8-6.89-7.88-9.85-4.76-4.56-10.29-7.83-16.52-9.68-4.87-1.44-9.87-2.54-15.08-2.27-6.68.34-12.98,1.93-18.8,5.14-5.83,3.21-10.87,7.41-14.7,12.95-2.67,3.85-4.89,7.94-6.17,12.44-1.8,6.34-2.49,12.78-1.44,19.39.74,4.65,2.06,9.08,4.22,13.21,2.4,4.59,4.64,9.24,5.4,14.38.51,3.45.64,6.96.71,10.45.04,1.99-.18,2,1.69,2.41,13.21,2.92,26.41,5.84,39.62,8.77l1.52.34Zm-1.97,8.55c-14.36-3.18-28.43-6.29-42.57-9.42-.34,1.53-.67,2.98-.98,4.44-.46,2.14.94,4.36,3.05,4.84,1.79.41,3.58.8,5.37,1.19,9.62,2.13,19.23,4.26,28.85,6.38,1.77.39,4.14-.67,4.66-2.18.59-1.7,1.06-3.44,1.61-5.26Zm-13.28,14.77c-4.04-.89-7.99-1.77-11.95-2.64-3.91-.87-7.82-1.73-11.8-2.61.4,5.25,4.6,9.89,8.9,11.2,6.02,1.83,12.64-1.7,14.85-5.94Z"/>
  <path class="cls-2" d="m744.83,317.41c1.72-2.11,3.88-2.29,6.33-1.58,2.52.73,5.11,1.25,7.61,2.03,1.64.51,2.79,2.1,2.71,3.41-.16,2.86-1.14,3.75-3.1,4.46-.66.24-1.49.24-2.19.11-2.32-.44-4.6-1.14-6.93-1.47-2.6-.37-4.37-1.53-5.06-4.13l.63-2.83Z"/>
  <path class="cls-2" d="m879.81,353.21c-1.41-.31-2.81-.72-4.24-.91-2.02-.27-3.47-2.73-3.31-4.33.27-2.63,1.82-4.41,4.1-4.06,3.74.57,7.44,1.53,11.12,2.45,1.06.27,1.89,2.32,1.87,3.57-.02,2.1-1.08,3.44-2.97,4.09-.71.24-1.57.22-2.33.1-1.43-.22-2.83-.6-4.24-.91Z"/>
  <path class="cls-2" d="m881.91,329.9c-2.09-.05-2.91-1.53-3.36-3.18-.5-1.82.33-3.5,2-4.57,2.36-1.51,4.77-2.94,7.06-4.54,1.77-1.24,5.22-.59,6.3,1.52,1.04,2.04.52,4.38-1.62,5.74-2.32,1.48-4.66,2.92-6.94,4.45-1.11.74-2.19,1.14-3.44.56Z"/>
  <path class="cls-2" d="m742.9,352.61c-2.08-.46-3.36-1.68-3.59-3.37-.25-1.88.36-3.4,2.02-4.45,2.37-1.49,4.77-2.93,7.06-4.53,1.79-1.26,5.24-.59,6.31,1.5,1.04,2.04.53,4.39-1.59,5.75-2.32,1.48-4.66,2.92-6.95,4.45-1.1.74-2.18,1.16-3.27.66Z"/>
  <path class="cls-2" d="m759.63,302.88c-1.17.02-1.92-.82-2.58-1.9-1.41-2.3-2.9-4.55-4.34-6.84-1.54-2.45-1.02-4.84,1.35-6.32,1.9-1.19,4.56-.39,5.96,1.79,1.46,2.27,2.91,4.55,4.36,6.83,1.08,1.71,1.08,3.46,0,5.02-.91,1.32-2.68,1.89-4.75,1.43Z"/>
  <path class="cls-2" d="m876.39,382.12c-1.25.02-2.01-.81-2.67-1.89-1.41-2.3-2.9-4.55-4.34-6.84-1.54-2.45-1.03-4.85,1.32-6.33,1.9-1.2,4.58-.41,5.97,1.76,1.46,2.27,2.88,4.57,4.37,6.82,1.12,1.7,1.17,3.45-.03,5-1,1.29-2.5,2.33-4.62,1.48Z"/>
  <path class="cls-1" d="m828,386.57l-1.52-.34c-13.21-2.92-26.41-5.84-39.62-8.77-1.86-.41-1.65-.42-1.69-2.41-.06-3.49-.2-7.01-.71-10.45-.76-5.14-3-9.79-5.4-14.38-2.15-4.13-3.48-8.56-4.22-13.21-1.05-6.61-.36-13.05,1.44-19.39,1.27-4.5,3.5-8.59,6.17-12.44,3.83-5.54,8.87-9.74,14.7-12.95,5.83-3.21,12.13-4.8,18.8-5.14,5.21-.26,10.21.83,15.08,2.27,6.23,1.85,11.76,5.11,16.52,9.68,3.08,2.95,5.78,6.17,7.88,9.85,3.87,6.78,6.05,14.06,5.74,21.93-.12,3.01-.2,6.08-.87,8.99-.73,3.2-1.88,6.36-3.25,9.36-2.46,5.35-5.95,10.02-10.41,13.9-2.53,2.2-5.17,4.29-7.7,6.5-4.33,3.78-7.25,8.6-9.79,13.66-.5,1-.75,2.13-1.16,3.34Zm24.13-50.93s.09,0,.14,0c.09-1.32.18-2.63.26-3.95.19-3.34-.32-6.58-1.1-9.84-.88-3.69-2.44-7.08-4.46-10.2-2.14-3.32-4.82-6.22-8.05-8.6-2.65-1.96-5.41-3.64-8.52-4.69-1.49-.5-3.08-.74-4.5-1.38-1.58-.71-2.92-.49-4.18.49-1.33,1.04-1.8,2.49-1.56,4.14.38,2.67,2.51,3.4,4.64,4.11,1.57.52,3.19.94,4.67,1.65,5.13,2.48,8.99,6.38,11.6,11.38,2.93,5.61,3.42,11.66,2.22,17.82-.36,1.82,1.09,4.26,2.74,4.71,2.39.65,4.63-.31,5.36-2.42.36-1.04.5-2.15.74-3.23Z"/>
  <path class="cls-1" d="m826.03,395.12c-.55,1.81-1.02,3.56-1.61,5.26-.52,1.5-2.89,2.57-4.66,2.18-9.62-2.12-19.23-4.25-28.85-6.38-1.79-.4-3.58-.79-5.37-1.19-2.12-.48-3.52-2.7-3.05-4.84.31-1.46.64-2.91.98-4.44,14.14,3.13,28.21,6.24,42.57,9.42Z"/>
  <path class="cls-1" d="m812.75,409.89c-2.21,4.24-8.83,7.77-14.85,5.94-4.31-1.31-8.5-5.94-8.9-11.2,3.98.88,7.89,1.75,11.8,2.61,3.96.88,7.91,1.75,11.95,2.64Z"/>
  <path class="cls-2" d="m852.13,335.64c-.24,1.08-.38,2.19-.74,3.23-.73,2.11-2.97,3.06-5.36,2.42-1.65-.45-3.1-2.89-2.74-4.71,1.2-6.16.71-12.21-2.22-17.82-2.61-5-6.47-8.9-11.6-11.38-1.48-.71-3.1-1.13-4.67-1.65-2.14-.71-4.26-1.44-4.64-4.11-.24-1.65.23-3.11,1.56-4.14,1.26-.98,2.6-1.19,4.18-.49,1.42.64,3.01.87,4.5,1.38,3.11,1.06,5.88,2.74,8.52,4.69,3.23,2.39,5.91,5.29,8.05,8.6,2.02,3.12,3.57,6.51,4.46,10.2.78,3.26,1.3,6.5,1.1,9.84-.08,1.32-.17,2.63-.26,3.95-.05,0-.09,0-.14,0Z"/>
  <path class="cls-1" d="m263.41,625.05c-8.42,1.69-16.83,3.48-25.24,5.22-4.27.88-5.23.27-6.09-3.87-1.33-6.38-2.65-12.76-4.05-19.51,7.47-1.03,13.6-3.89,16.95-10.66,1.84-3.72,2.33-7.61,1.3-11.54-1.36-5.22-4.62-9.06-9.68-11.43-4.97-2.33-10.13-1.87-15.61-.3-1.56-7.53-3.07-14.56-4.46-21.62-.43-2.2.77-3.48,3.05-3.94,5.15-1.04,10.3-2.13,15.45-3.2,21.03-4.37,42.06-8.73,63.09-13.1,4.26-.88,5.03-.4,5.89,3.71,1.61,7.7,3.19,15.42,4.81,23.12,1.02,4.87,3.02,6.09,8.16,5.06,2.41-.49-2.42.41,0,0,4.67-.78,4.39,4.03,5.24,8.03.87,4.1,1.76,5.49-2.93,6.58-2.56.59,2.57-.56,0,0-4.28.93-5.73,2.98-4.9,7.13,1.59,7.88,3.26,15.74,4.88,23.62.87,4.19.29,5.03-4.05,5.93-8.07,1.68-16.14,3.34-24.2,5.03"/>
  <path class="cls-1" d="m318.11,576.86c2.83-.58,4.63-3.15,4.11-5.84-.53-2.7-3.17-4.44-5.98-3.94-2.89.52-4.8,3.25-4.21,6.03.57,2.68,3.26,4.34,6.08,3.76Z"/>
  <path class="cls-4" d="m307.28,550.42c-.18-.65-.29-1.31-.43-1.96-.97-4.67-1.93-9.35-2.92-14.02-.8-3.76-1.7-4.33-5.58-3.54-6.18,1.27-12.36,2.56-18.54,3.85-.75.16-1.48.4-2.51.69,1.74,6.34,1.65,12.39-2.76,17.81-2.76,3.39-6.31,5.63-10.69,6.54-5.67,1.18-10.75-.03-15.25-3.39-4.52-3.38-6.16-8.25-7.09-13.63-7.77,1.61-15.31,3.14-22.82,4.77-1.85.4-2.53,1.89-2.2,3.53,1.41,7.13,2.93,14.24,4.48,21.74,7.17-2.09,13.84-1.88,19.59,2.84,3.21,2.64,5.24,6,5.92,10,.9,5.31-.5,10.15-4.13,14.39-3.64,4.25-8.65,5.88-14.16,6.69.1.9.13,1.55.26,2.19,1.23,5.99,2.47,11.97,3.72,17.95.72,3.41,1.91,4.15,5.53,3.4,9.96-2.05,19.91-4.13,29.87-6.2,15.96-3.31,31.93-6.62,47.89-9.95,3.95-.82,4.62-1.82,3.84-5.64-.9-4.43-1.9-8.84-2.69-13.29m10.4-1.17c1,4.5,1.97,9,2.82,13.52,1.49,7.97-2.94,14.35-11.26,16.19-6.08,1.34-12.18,2.55-18.28,3.81-20,4.15-39.98,8.39-60.01,12.37-3.06.61-6.35-.02-9.53,0-.74,0-1.53.28-2.22.59-2.58,1.18-5,3-7.7,3.57-26.32,5.62-52.68,11.04-79.03,16.49-8.76,1.81-15.45-2.36-17.17-10.67-5.23-25.17-10.45-50.33-15.67-75.5-1.73-8.33,2.72-14.8,11.48-16.64,8.58-1.8,17.16-3.58,25.75-5.34,4.37-.9,6.58.51,7.48,4.73.54,2.54,1.01,5.09,1.61,7.62.97,4.09,4.87,6.48,9.03,5.61,4.18-.88,6.73-4.55,5.98-8.76-.5-2.8-1.2-5.57-1.68-8.37-.54-3.13.91-5.59,3.91-6.24,10.35-2.24,20.73-4.34,31-6.47-1.61-7.78-3.27-15.77-4.93-23.76-.37-1.8-.81-3.6-1.1-5.41-.53-3.3,1.07-5.59,4.46-6.38,2.82-.65,5.67-1.16,8.49-1.79,4.48-1,7.22-4.77,6.42-8.78-.79-4.01-4.79-6.42-9.31-5.56-2.76.52-5.49,1.17-8.24,1.68-3.87.72-6.29-.76-7.07-4.45-1.83-8.6-3.69-17.19-5.35-25.82-1.44-7.47,3.14-14.03,10.97-15.67,26.77-5.62,53.54-11.17,80.33-16.68,8.09-1.66,14.66,2.37,16.44,10.07,1.41,6.12,2.59,12.29,3.87,18.44.18.88.37,1.76.61,2.94,1.57-.33,2.83-.63,4.11-.85,8.7-1.47,15.96,1.95,19.98,9.38.19.35.49.64.74.95l1.23,5.9c-.12.73-.28,1.45-.36,2.18-.87,7.65-6.38,13.66-14.43,15.65-1.27.31-2.55.54-3.81.8.32,10.22,6.19,19.6,3.22,30.37,2.9,2.27,3.98,5.82,4.7,9.58.96,5.02,2.12,9.99,3.06,15.01m-115.85-68.47c5.48-1.57,10.64-2.04,15.61.3,5.05,2.37,8.31,6.21,9.68,11.43,1.03,3.93.54,7.82-1.3,11.54-3.36,6.77-9.49,9.63-16.95,10.66,1.4,6.75,2.72,13.13,4.05,19.51.86,4.14,1.82,4.75,6.09,3.87,8.41-1.74,16.82-3.53,25.24-5.22,3.87-.78,6.04.64,6.85,4.27.57,2.53,1.03,5.09,1.6,7.62,1.01,4.49,4.83,7.04,9.15,6.16,4.32-.88,6.8-4.66,6-9.24-.39-2.23-.91-4.43-1.36-6.64-1-4.95.27-6.84,5.37-7.91,8.07-1.69,16.14-3.35,24.2-5.03,4.35-.91,4.92-1.74,4.05-5.93-1.63-7.87-3.3-15.74-4.88-23.62-.84-4.15.62-6.2,4.9-7.13,2.57-.56,5.16-1.03,7.72-1.62,4.69-1.09,7.4-4.84,6.54-8.94-.85-4-4.68-6.3-9.35-5.52-2.42.41-4.81.98-7.22,1.47-5.13,1.04-7.14-.19-8.16-5.06-1.62-7.7-3.2-15.41-4.81-23.12-.86-4.1-1.63-4.59-5.89-3.71-21.03,4.36-42.06,8.73-63.09,13.1-5.15,1.07-10.3,2.16-15.45,3.2-2.28.46-3.48,1.74-3.05,3.94,1.39,7.06,2.9,14.09,4.46,21.62Zm-57.44,83.22c-7.76,1.61-15.06,3.09-22.34,4.66-2.49.54-3.17,1.86-2.61,4.6,5.2,25.08,10.4,50.15,15.62,75.22.63,3.05,1.79,3.8,4.93,3.15,26.25-5.44,52.51-10.89,78.76-16.35,3.31-.69,4.04-1.77,3.37-5.01-1.69-8.2-3.43-16.38-5.08-24.59-.75-3.72.87-6.03,4.7-6.89,2.91-.65,5.85-1.15,8.74-1.86,4.08-.99,6.64-4.88,5.84-8.68-.8-3.81-4.67-6.29-8.84-5.59-2.33.39-4.64.93-6.95,1.41-6.14,1.27-7.96.16-9.15-5.6-1.62-7.78-3.22-15.57-4.86-23.35-.61-2.91-1.78-3.63-4.79-3.03-3.69.74-7.38,1.52-11.07,2.29-3.48.72-6.97,1.45-10.71,2.22,1.46,5.33,1.89,10.36-.82,15.21-2.74,4.9-6.88,8.05-12.54,9.28-4.47.97-8.69.38-12.65-1.71-6.16-3.26-8.72-8.71-9.55-15.39Z"/>
  <path class="cls-2" d="m154.38,436.07c14.94-1.89,23.1,2.09,25.41,12.34,1.23,5.45-.13,10.47-3.83,14.91-3.65,4.38-8.73,6.05-14.49,6.89.87,4.19,1.68,8.1,2.49,12,.66,3.2,1.36,6.38,1.98,9.59,1.41,7.39-3.21,14.01-10.96,15.67-6.51,1.39-13.04,2.72-19.56,4.07-.84.17-1.68.35-2.85.59,1.98,6.86,1.68,13.26-3.4,18.85-3.03,3.33-6.83,5.27-11.34,5.9-10.5,1.48-17.28-4.01-21.01-17.33-.86.18-1.76.37-2.65.55-6.43,1.34-12.87,2.69-19.3,4-8.26,1.68-15.03-2.55-16.67-10.4-5.28-25.4-10.56-50.8-15.82-76.21-1.63-7.86,2.88-14.46,11.13-16.18,26.59-5.54,53.19-11.07,79.79-16.57,8.25-1.71,15.05,2.51,16.73,10.34,1.3,6.06,2.53,12.13,3.79,18.19.18.88.37,1.77.58,2.79Zm-93.86,37.15c2.6,12.54,5.2,25.08,7.81,37.62.7,3.37,1.72,4,5.27,3.26,8.33-1.72,16.65-3.46,24.97-5.18,4.78-.99,6.95.35,7.91,4.81.54,2.54,1,5.09,1.61,7.62.96,3.96,4.79,6.3,8.86,5.51,4.18-.82,6.84-4.54,6.12-8.68-.45-2.55-1.05-5.08-1.56-7.63-.87-4.35.61-6.51,5.16-7.46,8.41-1.76,16.82-3.49,25.23-5.25,3.48-.73,4.18-1.77,3.49-5.15-1.67-8.12-3.39-16.22-5.04-24.35-.79-3.87.79-6.16,4.79-7.04,2.74-.61,5.5-1.11,8.23-1.73,4.32-.98,6.97-4.71,6.23-8.66-.75-4.01-4.76-6.48-9.25-5.64-2.5.46-4.98,1.02-7.47,1.53-4.92,1-7.07-.31-8.04-4.95-1.66-7.95-3.3-15.9-4.96-23.85-.7-3.34-1.78-4-5.3-3.27-26.09,5.41-52.17,10.83-78.26,16.25-3.53.73-4.21,1.74-3.51,5.11,2.56,12.38,5.14,24.75,7.71,37.13Z"/>
  <path class="cls-1" d="m201.67,479.85c-1.56-7.53-3.07-14.56-4.46-21.62-.43-2.2.77-3.48,3.05-3.94,5.15-1.04,10.3-2.13,15.45-3.2,21.03-4.37,42.06-8.73,63.09-13.1,4.26-.88,5.03-.4,5.89,3.71,1.61,7.7,3.19,15.42,4.81,23.12,1.02,4.87,3.02,6.09,8.16,5.06,2.41-.49,4.8-1.06,7.22-1.47,4.67-.78,8.51,1.52,9.35,5.52.87,4.1-1.85,7.85-6.54,8.94-2.56.59-5.15,1.07-7.72,1.62-4.28.93-5.73,2.98-4.9,7.13,1.59,7.88,3.26,15.74,4.88,23.62.87,4.19.29,5.03-4.05,5.93-8.07,1.68-16.14,3.34-24.2,5.03-5.1,1.07-6.38,2.96-5.37,7.91.45,2.22.97,4.42,1.36,6.64.81,4.58-1.67,8.36-6,9.24-4.32.88-8.13-1.66-9.15-6.16-.57-2.53-1.04-5.09-1.6-7.62-.81-3.64-2.99-5.05-6.85-4.27-8.42,1.69-16.83,3.48-25.24,5.22-4.27.88-5.23.27-6.09-3.87-1.33-6.38-2.65-12.76-4.05-19.51,7.47-1.03,13.6-3.89,16.95-10.66,1.84-3.72,2.33-7.61,1.3-11.54-1.36-5.22-4.62-9.06-9.68-11.43-4.97-2.33-10.13-1.87-15.61-.3Z"/>
  <path class="cls-1" d="m144.22,563.06c.83,6.68,3.39,12.13,9.55,15.39,3.96,2.09,8.18,2.68,12.65,1.71,5.66-1.23,9.81-4.38,12.54-9.28,2.71-4.85,2.28-9.88.82-15.21,3.74-.78,7.23-1.5,10.71-2.22,3.69-.77,7.37-1.55,11.07-2.29,3.01-.6,4.17.13,4.79,3.03,1.64,7.78,3.24,15.57,4.86,23.35,1.2,5.77,3.01,6.87,9.15,5.6,2.32-.48,4.62-1.02,6.95-1.41,4.17-.7,8.03,1.78,8.84,5.59.8,3.8-1.76,7.69-5.84,8.68-2.89.7-5.84,1.2-8.74,1.86-3.83.86-5.45,3.17-4.7,6.89,1.65,8.2,3.4,16.39,5.08,24.59.66,3.23-.06,4.32-3.37,5.01-26.25,5.46-52.5,10.91-78.76,16.35-3.14.65-4.29-.1-4.93-3.15-5.21-25.07-10.42-50.15-15.62-75.22-.57-2.75.12-4.07,2.61-4.6,7.28-1.57,14.58-3.05,22.34-4.66Z"/>
  <path class="cls-2" d="m103.07,467.35c2.65-5.15,5.21-10.13,7.77-15.12.7-1.36,1.37-2.74,2.09-4.09,1.82-3.45,4.74-4.72,7.6-3.33,2.82,1.37,3.51,4.2,1.83,7.56-1.03,2.05-2.08,4.09-3.13,6.14-2.95,5.76-5.87,11.52-8.85,17.26-1.9,3.67-4.75,4.56-8.41,2.64-3.8-2-7.57-4.05-11.32-6.13-3.03-1.68-3.92-4.34-2.44-6.96,1.53-2.71,4.5-3.44,7.69-1.81,2.36,1.2,4.68,2.5,7.18,3.84Z"/>
</svg>